name rise31.4854peak64.571fall78.6902.mot
datacolumns 19
datarows 14
range 2.68500700000000 2.70665900000000
endheader
time	ground_force1_vx	ground_force1_vy	ground_force1_vz	ground_force1_px	ground_force1_py	ground_force1_pz	ground_force2_vx	ground_force2_vy	ground_force2_vz	ground_force2_px	ground_force2_py	ground_force2_pz	ground_torque1_x	ground_torque1_y	ground_torque1_z	ground_torque2_x	ground_torque2_y	ground_torque2_z	
2.68500700000000	-6.70423200000000	40.79110600000000	-12.02998200000000	0.27722500000000	0.00000000000000	0.07157000000000	-42.77653400000000	775.55487300000004	-49.38821800000000	0.09079800000000	0.00000000000000	-0.08950600000000	0.00000000000000	-7.43790700000000	0.00000000000000	0.00000000000000	-14.49261800000000	0.00000000000000	
2.68665500000000	-7.20058500000000	47.98287800000000	-13.55882800000000	0.28247300000000	0.00000000000000	0.07302500000000	-43.28209700000000	772.86154799999997	-48.93401200000000	0.09019000000000	0.00000000000000	-0.08939500000000	0.00000000000000	-8.49445000000000	0.00000000000000	0.00000000000000	-14.48167500000000	0.00000000000000	
2.68832100000000	-7.52906800000000	55.30903600000000	-14.96034000000000	0.28735900000000	0.00000000000000	0.07432700000000	-43.82103500000000	770.08771700000000	-48.46528600000000	0.08958300000000	0.00000000000000	-0.08928000000000	0.00000000000000	-9.49625700000000	0.00000000000000	0.00000000000000	-14.47764000000000	0.00000000000000	
2.69000400000000	-7.67110900000000	62.67819600000000	-16.20319500000000	0.29193900000000	0.00000000000000	0.07550300000000	-44.39303200000000	767.23095100000000	-47.98196900000000	0.08897900000000	0.00000000000000	-0.08916100000000	0.00000000000000	-10.42212800000000	0.00000000000000	0.00000000000000	-14.48046400000000	0.00000000000000	
2.69166000000000	-7.61676600000000	70.01996600000000	-17.26658400000000	0.29625300000000	0.00000000000000	0.07657300000000	-44.99762800000000	764.28865299999995	-47.48398700000000	0.08837700000000	0.00000000000000	-0.08903700000000	0.00000000000000	-11.25689500000000	0.00000000000000	0.00000000000000	-14.49006400000000	0.00000000000000	
2.69332400000000	-7.36444800000000	77.28728300000000	-18.14036500000000	0.30033700000000	0.00000000000000	0.07755200000000	-45.63421600000000	761.25806799999998	-46.97126600000000	0.08777900000000	0.00000000000000	-0.08890800000000	0.00000000000000	-11.99174600000000	0.00000000000000	0.00000000000000	-14.50632500000000	0.00000000000000	
2.69499500000000	-6.92001600000000	84.45643600000000	-18.82432600000000	0.30421600000000	0.00000000000000	0.07845400000000	-46.30204300000000	758.13628700000004	-46.44373500000000	0.08718600000000	0.00000000000000	-0.08877500000000	0.00000000000000	-12.62397900000000	0.00000000000000	0.00000000000000	-14.52910100000000	0.00000000000000	
2.69666100000000	-6.29541000000000	91.52517300000000	-19.32675100000000	0.30791400000000	0.00000000000000	0.07928900000000	-47.00020600000000	754.92025599999999	-45.90132800000000	0.08659900000000	0.00000000000000	-0.08863700000000	0.00000000000000	-13.15628500000000	0.00000000000000	0.00000000000000	-14.55821100000000	0.00000000000000	
2.69832900000000	-5.50702700000000	98.50936299999999	-19.66254200000000	0.31144700000000	0.00000000000000	0.08006600000000	-47.72765400000000	751.60678399999995	-45.34398400000000	0.08601800000000	0.00000000000000	-0.08849400000000	0.00000000000000	-13.59572500000000	0.00000000000000	0.00000000000000	-14.59344200000000	0.00000000000000	
2.70000500000000	-4.57401200000000	105.43875800000001	-19.85112200000000	0.31483100000000	0.00000000000000	0.08079100000000	-48.48318900000000	748.19255299999998	-44.77165500000000	0.08544400000000	0.00000000000000	-0.08834600000000	0.00000000000000	-13.95250100000000	0.00000000000000	0.00000000000000	-14.63454800000000	0.00000000000000	
2.70166000000000	-3.51661000000000	112.35234400000000	-19.91432700000000	0.31807800000000	0.00000000000000	0.08147100000000	-49.26546300000000	744.67412999999999	-44.18430300000000	0.08487900000000	0.00000000000000	-0.08819400000000	0.00000000000000	-14.23869500000000	0.00000000000000	0.00000000000000	-14.68125300000000	0.00000000000000	
2.70332000000000	-2.35472600000000	119.29374900000001	-19.87447500000000	0.32119700000000	0.00000000000000	0.08211200000000	-50.07298700000000	741.04797699999995	-43.58190600000000	0.08432300000000	0.00000000000000	-0.08803700000000	0.00000000000000	-14.46705200000000	0.00000000000000	0.00000000000000	-14.73324700000000	0.00000000000000	
2.70500000000000	-1.10674900000000	126.30705100000000	-19.75271800000000	0.32419800000000	0.00000000000000	0.08271600000000	-50.90412300000000	737.31046700000002	-42.96445900000000	0.08377700000000	0.00000000000000	-0.08787500000000	0.00000000000000	-14.64992400000000	0.00000000000000	0.00000000000000	-14.79019000000000	0.00000000000000	
2.70665900000000	0.21130400000000	133.43324999999999	-19.56777100000000	0.32708800000000	0.00000000000000	0.08328900000000	-51.75709900000000	733.45789600000001	-42.33197800000000	0.08324100000000	0.00000000000000	-0.08770900000000	0.00000000000000	-14.79842000000000	0.00000000000000	0.00000000000000	-14.85171300000000	0.00000000000000	
